# xmcd
#
# Track frame offsets:
#	150
#	7850
#	22657
#	43329
#	57076
#	71148
#	82670
#	87292
#	113644
#	135478
#	158872
#	181145
#	203018
#	222136
#
# Disc length: 3380 seconds
#
# Revision: 0
# Processed by: cddbd v1.5.2PL0 Copyright (c) Steve Scherf et al.
# Submitted via: EZCDAudioConverter 2.1.3.1
#
DISCID=a50d320e
DTITLE=SARAH VAUGHAN - You hit the spot [CD2)
DYEAR=1900
DGENRE=
TTITLE0=I cried for you 1954
TTITLE1=All of me 1954
TTITLE2=Words can't describe 1954
TTITLE3=You hit the spot 1954
TTITLE4=Pennies from heaven 1954
TTITLE5=If I knew then what I know now 1954
TTITLE6=Linger Awhile 1957
TTITLE7=Jim 1954
TTITLE8=Embraceable you 1954
TTITLE9=I'm glad there is you 1954
TTITLE10=It's crazy 1954
TTITLE11=Speak low 1958
TTITLE12=All of you 1958
TTITLE13=Thanks for the memory 1958
EXTD=
EXTT0=
EXTT1=
EXTT2=
EXTT3=
EXTT4=
EXTT5=
EXTT6=
EXTT7=
EXTT8=
EXTT9=
EXTT10=
EXTT11=
EXTT12=
EXTT13=
PLAYORDER=
